<svg width="32" height="32" viewBox="0 0 32 32" fill="none" xmlns="http://www.w3.org/2000/svg">
<path d="M27.2857 14.2857C27.2857 14.8381 26.8381 15.2857 26.2857 15.2857H5.71429C5.1619 15.2857 4.71429 14.8381 4.71429 14.2857V12.062C4.71429 9.38797 6.64335 7.07222 9.21522 6.54131L11.4286 6.05714C12.4857 5.82857 13.5429 5.71429 14.8571 5.71429H17.1429C18.4571 5.71429 19.5143 5.82857 20.5714 6.05714L22.7848 6.54131C25.3567 7.07222 27.2857 9.38797 27.2857 12.062V14.2857Z" fill="#CBD5E1" stroke="#475569" stroke-width="1.5"/>
<path d="M28.5714 14.2857H3.42857C2.87629 14.2857 2.42857 14.7334 2.42857 15.2857V18.1429C2.42857 19.0031 3.12548 19.7001 3.98571 19.7001H4.28571C4.8381 19.7001 5.28571 20.1477 5.28571 20.7001V22.2857C5.28571 23.4752 6.25337 24.4429 7.44286 24.4429H8.28571C8.8381 24.4429 9.28571 24.8905 9.28571 25.4429V25.7143C9.28571 26.2666 9.73343 26.7143 10.2857 26.7143H11.7143C12.2666 26.7143 12.7143 26.2666 12.7143 25.7143V25.4286C12.7143 24.8763 12.2666 24.4286 11.7143 24.4286H10.1429C9.04821 24.4286 8.14286 23.5232 8.14286 22.4286V20.5714C8.14286 19.8996 7.60037 19.3571 6.92857 19.3571H4.42857C4.15243 19.3571 3.92857 19.1333 3.92857 18.8571V15.7143C3.92857 15.4382 4.15243 15.2143 4.42857 15.2143H27.5714C27.8476 15.2143 28.0714 15.4382 28.0714 15.7143V18.8571C28.0714 19.1333 27.8476 19.3571 27.5714 19.3571H25.0714C24.3996 19.3571 23.8571 19.8996 23.8571 20.5714V22.4286C23.8571 23.5232 22.9518 24.4286 21.8571 24.4286H20.2857C19.7334 24.4286 19.2857 24.8763 19.2857 25.4286V25.7143C19.2857 26.2666 19.7334 26.7143 20.2857 26.7143H21.7143C22.2666 26.7143 22.7143 26.2666 22.7143 25.7143V25.4429C22.7143 24.8905 23.1619 24.4429 23.7143 24.4429H24.5571C25.7466 24.4429 26.7143 23.4752 26.7143 22.2857V20.7001C26.7143 20.1477 27.1619 19.7001 27.7143 19.7001H28.0143C28.8745 19.7001 29.5714 19.0031 29.5714 18.1429V15.2857C29.5714 14.7334 29.1237 14.2857 28.5714 14.2857Z" fill="#94A3B8" stroke="#475569" stroke-width="1.5" stroke-linecap="round" stroke-linejoin="round"/>
<path d="M12.2857 11.5714H9.28571" stroke="#475569" stroke-width="1.5" stroke-linecap="round"/>
<path d="M22.7143 11.5714H19.7143" stroke="#475569" stroke-width="1.5" stroke-linecap="round"/>
</svg>
