<svg width="24" height="24" viewBox="0 0 24 24" fill="none" xmlns="http://www.w3.org/2000/svg">
<path d="M13.52 3.26001C11.96 1.70001 9.43 1.70001 7.86 3.26001C6.3 4.82001 6.3 7.35001 7.86 8.91001C9.43 10.47 11.96 10.47 13.52 8.91001C15.08 7.35001 15.08 4.82001 13.52 3.26001Z" stroke="#B0B0B0" stroke-width="1.5" stroke-linecap="round" stroke-linejoin="round"/>
<path d="M10.15 13.29C8.36 11.5 5.53 11.5 3.74 13.29C1.95 15.08 1.95 17.91 3.74 19.7C5.53 21.49 8.36 21.49 10.15 19.7C11.94 17.91 11.94 15.08 10.15 13.29Z" stroke="#B0B0B0" stroke-width="1.5" stroke-linecap="round" stroke-linejoin="round"/>
<path d="M20.25 13.29C18.46 11.5 15.63 11.5 13.84 13.29C12.05 15.08 12.05 17.91 13.84 19.7C15.63 21.49 18.46 21.49 20.25 19.7C22.04 17.91 22.04 15.08 20.25 13.29Z" stroke="#B0B0B0" stroke-width="1.5" stroke-linecap="round" stroke-linejoin="round"/>
<path d="M18.14 8.91C19.7 7.35 19.7 4.82 18.14 3.26C16.58 1.7 14.05 1.7 12.48 3.26C12.22 3.52 12 3.82 11.81 4.14" stroke="#B0B0B0" stroke-width="1.5" stroke-linecap="round" stroke-linejoin="round"/>
</svg>
