
<svg xmlns="http://www.w3.org/2000/svg" width="24" height="24" viewBox="0 0 24 24" fill="none" stroke="currentColor" stroke-width="2" stroke-linecap="round" stroke-linejoin="round" class="lucide lucide-car"><path d="M19 17h2c.6 0 1-.4 1-1v-3c0-.9-.7-1.7-1.5-1.9C18.7 10.6 16 10 16 10s-1.3-1.4-2.2-2.3c-.5-.4-1.1-.7-1.8-.7H5c-.6 0-1.1.4-1.4.9l-1.4 2.9A3.7 3.7 0 0 0 2 12v4c0 .6.4 1 1 1h2"/><path d="M10 17h4"/><path d="M5 17a2 2 0 1 0 0-4 2 2 0 0 0 0 4Z"/><path d="M19 17a2 2 0 1 0 0-4 2 2 0 0 0 0 4Z"/><path d="m5 11 1-3h8l1 3"/><path d="M2 12v-3c0-1.1.9-2 2-2h12c1.1 0 2 .9 2 2v3"/></svg>
